<svg xmlns="http://www.w3.org/2000/svg" width="205" height="205" viewBox="0 0 205 205">
<g>
<path d="M 115.00 177.64 C115.00,178.11 109.60,178.50 103.00,178.50 C96.40,178.50 91.00,178.15 91.00,177.73 C91.00,177.31 89.88,177.24 88.50,177.59 C86.90,177.99 86.00,177.80 86.00,177.04 C86.00,176.32 85.23,176.11 84.00,176.50 C82.90,176.85 82.00,176.70 82.00,176.18 C82.00,175.25 75.40,173.44 73.59,173.88 C73.09,174.01 72.42,173.69 72.09,173.18 C71.77,172.68 69.03,171.02 66.00,169.49 C42.70,157.76 24.87,135.14 20.88,112.26 C19.32,103.27 20.31,88.20 23.04,79.50 C29.99,57.33 44.31,40.81 65.50,30.53 C79.38,23.80 86.85,22.00 100.87,22.00 C125.86,22.00 144.64,29.68 162.03,47.00 C169.51,54.44 171.28,56.94 176.31,67.09 C181.61,77.76 182.17,79.56 183.44,89.90 C184.98,102.30 184.28,114.70 181.56,123.62 C177.97,135.40 166.83,151.18 156.22,159.51 C149.55,164.75 132.72,173.59 127.56,174.55 C125.60,174.92 124.00,175.58 124.00,176.02 C124.00,176.45 123.10,176.58 122.00,176.29 C120.87,175.99 120.00,176.26 120.00,176.90 C120.00,177.61 119.07,177.80 117.50,177.41 C116.12,177.07 115.00,177.17 115.00,177.64 ZM 89.26 174.89 C113.96,179.01 139.64,171.31 157.95,154.30 C174.55,138.88 181.95,122.91 181.99,102.43 C182.00,91.19 180.67,83.70 176.88,73.86 C168.17,51.21 149.90,34.68 124.96,26.84 C118.36,24.77 115.54,24.50 100.50,24.50 L 83.50 24.50 L 74.15 28.34 C53.14,36.97 40.65,47.81 30.64,66.07 C24.55,77.18 22.76,85.91 23.16,102.65 C23.42,113.54 23.84,117.28 24.88,117.93 C25.64,118.39 25.95,119.28 25.57,119.89 C25.19,120.50 25.34,121.00 25.91,121.00 C26.47,121.00 26.68,121.68 26.36,122.50 C26.05,123.32 26.25,124.00 26.83,124.00 C27.86,124.00 29.58,127.81 29.20,129.25 C29.09,129.66 29.48,130.00 30.06,130.00 C30.64,130.00 30.84,130.45 30.50,131.00 C30.16,131.55 30.39,132.00 31.00,132.00 C31.61,132.00 31.85,132.43 31.52,132.96 C31.20,133.49 31.84,134.84 32.96,135.96 C34.08,137.08 34.75,138.00 34.44,138.00 C32.96,138.00 41.29,148.00 47.73,153.95 C59.15,164.49 75.10,172.53 89.26,174.89 ZM 114.79 155.47 C100.62,158.29 90.05,156.71 75.30,149.58 C54.26,139.41 40.52,117.86 42.37,97.94 C44.99,69.75 68.58,48.25 99.00,46.34 C123.39,44.80 147.31,58.50 157.77,80.00 C172.81,110.91 151.60,148.15 114.79,155.47 ZM 70.00 95.08 C70.00,115.06 70.34,125.05 71.02,124.83 C71.58,124.64 78.58,117.52 86.58,108.99 L 101.12 93.50 L 96.19 93.20 L 91.26 92.90 L 90.63 88.31 C90.28,85.79 90.00,82.04 90.00,79.98 C90.00,76.33 89.79,76.12 80.58,70.62 C75.39,67.53 70.89,65.00 70.58,65.00 C70.26,65.00 70.00,78.54 70.00,95.08 ZM 117.67 137.33 C118.03,137.70 122.53,138.00 127.67,138.00 L 137.00 138.00 L 137.00 106.26 L 129.38 97.67 L 115.04 98.13 L 108.77 104.65 C105.32,108.23 102.36,111.53 102.20,111.99 C102.03,112.45 104.61,112.57 107.93,112.27 C116.69,111.48 117.00,111.93 117.00,125.46 C117.00,131.62 117.30,136.97 117.67,137.33 ZM 56.99 149.19 C57.05,154.15 43.83,140.09 38.13,129.13 C35.88,124.81 33.36,118.40 32.53,114.89 C30.60,106.68 30.59,93.07 32.50,85.46 C34.46,77.71 41.32,64.02 45.05,60.45 C48.88,56.78 49.67,57.72 46.41,62.07 C35.74,76.30 31.65,95.68 35.46,113.82 C37.01,121.19 39.79,128.00 41.24,128.00 C41.72,128.00 41.84,128.45 41.50,129.01 C41.15,129.56 41.57,130.28 42.43,130.61 C43.29,130.94 43.74,131.61 43.44,132.10 C43.13,132.60 43.39,133.00 44.00,133.00 C44.61,133.00 44.86,133.41 44.56,133.91 C44.25,134.41 46.92,137.90 50.49,141.66 C54.06,145.42 56.99,148.81 56.99,149.19 ZM 154.41 146.87 C149.98,150.77 148.00,151.84 148.00,150.33 C148.00,149.97 150.62,146.93 153.82,143.58 C160.50,136.61 163.78,131.38 167.64,121.49 C170.09,115.25 170.39,113.17 170.44,102.00 C170.49,92.23 170.09,88.30 168.61,84.00 C165.68,75.47 161.45,67.63 156.50,61.56 C153.74,58.17 152.54,56.00 153.41,56.00 C155.27,56.00 161.57,63.37 164.10,68.50 C165.18,70.70 166.94,74.14 167.99,76.15 C171.02,81.89 174.00,94.76 173.96,101.94 C173.88,117.86 165.50,137.10 154.41,146.87 ZM 66.00 135.73 C66.00,137.79 66.47,138.00 71.00,138.00 C74.98,138.00 76.00,137.66 76.00,136.35 C76.00,135.44 80.15,130.41 85.22,125.17 C90.67,119.54 93.91,115.47 93.16,115.22 C92.45,114.98 89.77,115.32 87.19,115.95 C83.36,116.90 80.99,118.61 74.25,125.29 C68.73,130.75 66.00,134.21 66.00,135.73 ZM 86.00 113.83 C86.00,114.04 86.62,113.98 87.37,113.69 C88.13,113.40 90.77,112.86 93.24,112.49 C97.13,111.90 98.73,110.81 105.09,104.41 L 112.45 97.00 L 109.67 94.25 L 106.88 91.50 L 96.44 102.48 C90.70,108.52 86.00,113.63 86.00,113.83 ZM 127.78 42.44 C122.01,46.48 114.93,40.85 117.81,34.52 C119.24,31.37 124.27,30.29 127.54,32.43 C130.85,34.60 130.98,40.20 127.78,42.44 ZM 102.68 169.64 C100.52,172.51 95.52,172.86 94.15,170.25 C93.09,168.21 93.81,162.00 95.11,162.00 C95.60,162.00 96.00,163.80 96.00,166.00 C96.00,169.33 96.33,170.00 98.00,170.00 C99.67,170.00 100.00,169.33 100.00,166.00 C100.00,161.62 101.30,160.82 103.05,164.10 L 104.17 166.20 L 105.64 164.10 C106.57,162.78 108.20,162.00 110.06,162.00 C113.78,162.00 113.93,163.76 110.25,164.18 C108.07,164.43 107.50,165.02 107.50,167.00 C107.50,169.08 108.09,169.60 111.00,170.08 C113.62,170.51 114.08,170.85 112.82,171.41 C110.11,172.62 106.63,171.66 105.50,169.39 L 104.46 167.29 ZM 80.00 136.00 C80.00,137.76 80.66,138.00 85.50,138.00 L 91.00 138.00 L 91.00 131.45 C91.00,124.05 90.95,124.04 84.12,130.25 C81.85,132.31 80.00,134.90 80.00,136.00 ZM 149.32 50.86 C147.77,53.09 146.25,54.94 145.95,54.96 C144.48,55.06 143.00,52.26 143.00,49.36 C143.00,47.58 142.55,45.84 142.00,45.50 C141.45,45.16 141.00,45.53 141.00,46.32 C141.00,48.31 138.13,50.54 137.03,49.41 C135.89,48.23 140.74,40.00 142.58,40.00 C143.34,40.00 144.24,41.24 144.57,42.75 C145.45,46.67 145.79,48.32 146.40,48.42 C146.83,48.49 147.40,47.79 148.38,46.56 C148.43,46.50 148.48,46.44 148.53,46.38 C150.47,43.96 150.95,43.76 151.49,45.14 C151.88,46.14 151.03,48.38 149.32,50.86 ZM 124.43 169.08 C121.03,172.84 115.00,170.52 115.00,165.45 C115.00,163.96 115.99,162.39 117.62,161.33 C119.96,159.80 120.50,159.77 122.87,161.09 C126.07,162.89 126.77,166.49 124.43,169.08 ZM 79.06 40.66 C79.75,42.46 79.75,43.65 79.06,44.34 C78.08,45.32 76.39,42.28 74.55,36.25 C73.53,32.92 76.26,32.38 80.59,35.05 L 84.23 37.30 L 83.53 34.15 C82.49,29.41 85.40,30.04 86.84,34.87 C89.04,42.20 87.85,43.79 83.00,40.00 C79.33,37.13 77.82,37.38 79.06,40.66 ZM 133.06 74.56 C135.71,77.38 137.83,76.41 136.09,73.17 C134.65,70.48 134.71,70.00 136.50,70.00 L 138.00 64.00 L 131.50 64.00 C126.61,64.00 125.00,64.35 125.00,65.39 C125.00,66.90 127.10,68.00 129.99,68.00 C131.33,68.00 131.67,68.54 131.28,70.05 C130.93,71.36 131.57,72.98 133.06,74.56 ZM 55.30 57.37 C54.19,58.47 53.57,58.02 50.30,53.72 C46.93,49.29 47.30,46.15 50.81,49.33 C52.56,50.91 52.78,50.91 54.32,49.19 C55.52,47.87 55.67,47.07 54.87,46.27 C53.77,45.17 54.44,43.00 55.89,43.00 C56.68,43.00 63.00,51.36 63.00,52.41 C63.00,53.58 60.61,52.96 58.80,51.32 C57.11,49.79 56.79,49.78 55.37,51.20 C54.17,52.40 54.05,53.23 54.87,54.75 C55.45,55.84 55.65,57.02 55.30,57.37 ZM 119.61 95.18 C119.99,95.79 121.97,96.00 124.29,95.69 C131.04,94.78 136.57,89.41 137.66,82.73 C138.13,79.79 137.94,79.00 136.74,79.00 C135.81,79.00 134.98,80.29 134.60,82.32 C133.76,86.82 128.71,91.78 124.16,92.60 C119.58,93.43 118.80,93.87 119.61,95.18 ZM 67.00 48.54 C67.00,49.34 66.38,50.00 65.63,50.00 C63.62,50.00 62.73,39.98 64.56,38.07 C65.75,36.83 66.24,36.89 68.22,38.54 C74.82,44.05 75.98,45.39 74.79,46.13 C74.12,46.55 73.02,46.43 72.35,45.87 C70.79,44.58 67.00,46.47 67.00,48.54 ZM 100.10 39.90 C97.79,42.21 96.56,42.38 93.35,40.83 C90.19,39.30 88.60,30.00 91.50,30.00 C92.44,30.00 93.00,30.95 93.00,32.57 C93.00,35.92 94.69,39.00 96.54,39.00 C97.63,39.00 98.00,37.72 98.00,34.00 C98.00,30.22 98.37,29.00 99.50,29.00 C100.32,29.00 101.00,29.62 101.00,30.38 C101.00,31.13 101.27,33.11 101.60,34.77 C102.06,37.05 101.69,38.31 100.10,39.90 ZM 105.40 82.60 C106.40,85.20 107.74,84.02 108.38,80.00 C109.19,74.98 113.29,70.33 118.46,68.56 C122.85,67.07 124.35,65.00 121.05,65.00 C117.95,65.00 112.89,67.37 109.82,70.26 C107.06,72.85 104.45,80.13 105.40,82.60 ZM 113.41 41.40 C110.79,42.40 109.39,42.10 106.63,39.93 C100.87,35.40 105.92,27.25 113.09,29.53 C116.15,30.50 115.43,32.72 112.19,32.24 C108.51,31.70 106.41,34.03 107.97,36.94 C108.61,38.14 110.07,39.00 111.48,39.00 C114.37,39.00 115.62,40.55 113.41,41.40 ZM 136.09 163.17 C136.83,164.55 136.86,165.54 136.17,166.23 C135.49,166.91 134.46,165.86 133.00,163.00 C130.42,157.95 131.40,155.95 135.52,157.83 C139.01,159.42 139.13,159.36 138.41,156.50 C137.42,152.54 139.72,153.52 142.02,158.03 C144.72,163.34 143.84,164.47 138.95,161.97 C134.73,159.82 134.38,159.97 136.09,163.17 ZM 91.00 166.50 C91.00,172.01 88.87,172.59 86.36,167.75 L 84.68 164.50 L 83.76 167.25 C82.47,171.09 80.59,170.79 81.38,166.88 C81.72,165.16 82.00,162.91 82.00,161.88 C82.00,158.96 84.30,159.67 86.45,163.26 C88.27,166.30 88.42,166.36 88.77,164.25 C89.43,160.27 91.00,161.85 91.00,166.50 ZM 69.49 163.16 C69.72,163.39 68.96,164.17 67.81,164.89 C65.82,166.13 65.74,166.04 66.31,163.19 C67.03,159.62 64.51,157.92 62.53,160.63 C60.45,163.47 59.82,160.46 61.67,156.57 C63.49,152.74 66.62,151.47 65.50,155.00 C65.06,156.39 65.40,157.22 66.62,157.68 C67.64,158.07 68.55,157.86 68.77,157.18 C68.99,156.53 69.78,156.00 70.53,156.00 C71.68,156.00 71.67,156.54 70.49,159.37 C69.71,161.23 69.27,162.93 69.49,163.16 ZM 119.22 83.44 C121.89,85.31 123.20,85.40 124.80,83.80 C128.68,79.92 123.07,73.81 119.00,77.50 C116.41,79.84 116.47,81.52 119.22,83.44 ZM 78.99 165.75 C78.99,167.54 78.55,169.00 78.00,169.00 C77.45,169.00 77.00,168.57 77.00,168.04 C77.00,167.50 76.04,166.56 74.87,165.93 C73.25,165.06 72.57,165.09 71.98,166.02 C71.57,166.70 70.71,166.94 70.09,166.55 C68.72,165.71 74.47,158.00 76.47,158.00 C77.97,158.00 78.97,161.08 78.99,165.75 ZM 117.14 89.93 C120.42,91.24 123.09,91.18 125.89,89.74 C129.73,87.75 128.41,86.52 122.41,86.51 C116.09,86.50 113.22,88.36 117.14,89.93 ZM 115.15 74.14 C117.18,75.46 124.23,74.07 126.47,71.90 C128.42,70.02 128.38,70.00 123.44,70.00 C117.88,70.00 112.74,72.56 115.15,74.14 ZM 122.25 40.72 C125.21,42.08 127.20,40.50 126.80,37.09 C126.59,35.23 125.82,34.40 124.11,34.16 C119.90,33.57 118.37,38.95 122.25,40.72 ZM 112.10 85.62 C113.11,86.83 113.55,86.86 114.55,85.80 C116.29,83.96 115.02,75.50 113.00,75.50 C111.07,75.50 110.36,83.52 112.10,85.62 ZM 134.00 46.54 C134.00,46.79 133.32,47.00 132.50,47.00 C131.68,47.00 131.00,46.31 131.00,45.46 C131.00,42.82 134.97,36.00 136.51,36.00 C137.72,36.00 137.64,36.85 135.99,41.04 C134.89,43.81 134.00,46.28 134.00,46.54 ZM 112.31 93.05 C116.12,95.37 117.00,95.47 117.00,93.57 C117.00,92.78 116.11,91.85 115.03,91.51 C113.94,91.16 112.19,89.78 111.13,88.44 C109.39,86.23 107.00,85.14 107.00,86.57 C107.00,88.27 109.52,91.35 112.31,93.05 ZM 128.89 84.33 C128.95,84.79 129.56,84.98 130.25,84.76 C132.19,84.12 132.34,78.16 130.48,75.32 C128.40,72.16 126.18,73.60 127.97,76.95 C128.61,78.14 129.05,80.10 128.95,81.30 C128.86,82.51 128.83,83.88 128.89,84.33 ZM 118.20 167.31 C119.57,169.96 122.44,168.98 122.82,165.74 C123.09,163.40 122.77,163.00 120.65,163.00 C117.81,163.00 116.85,164.68 118.20,167.31 ZM 131.50 166.25 C131.99,167.46 131.75,168.00 130.70,168.00 C129.28,168.00 127.00,163.29 127.00,160.35 C127.00,158.01 128.76,158.89 129.80,161.75 C130.35,163.26 131.11,165.29 131.50,166.25 ZM 100.54 152.07 C100.86,152.58 101.51,153.00 102.00,153.00 C103.40,153.00 104.13,151.20 103.02,150.51 C101.68,149.69 99.80,150.87 100.54,152.07 ZM 155.46 101.93 C156.26,103.23 157.69,103.32 158.44,102.10 C158.74,101.61 158.25,100.93 157.35,100.58 C155.40,99.83 154.54,100.45 155.46,101.93 ZM 101.47 50.95 C101.84,51.55 102.60,51.75 103.16,51.40 C103.84,50.98 103.82,50.42 103.10,49.70 C101.82,48.42 100.52,49.41 101.47,50.95 ZM 66.00 42.44 C66.00,43.30 66.45,44.00 67.00,44.00 C67.55,44.00 68.00,43.58 68.00,43.06 C68.00,42.54 67.55,41.84 67.00,41.50 C66.45,41.16 66.00,41.58 66.00,42.44 Z" fill="rgb(33,39,45)"/>
<path d="M 89.26 174.89 C75.10,172.53 59.15,164.49 47.73,153.95 C41.29,148.00 32.96,138.00 34.44,138.00 C34.75,138.00 34.08,137.08 32.96,135.96 C31.84,134.84 31.20,133.49 31.52,132.96 C31.85,132.43 31.61,132.00 31.00,132.00 C30.39,132.00 30.16,131.55 30.50,131.00 C30.84,130.45 30.64,130.00 30.06,130.00 C29.48,130.00 29.09,129.66 29.20,129.25 C29.58,127.81 27.86,124.00 26.83,124.00 C26.25,124.00 26.05,123.32 26.36,122.50 C26.68,121.68 26.47,121.00 25.91,121.00 C25.34,121.00 25.19,120.50 25.57,119.89 C25.95,119.28 25.64,118.39 24.88,117.93 C23.84,117.28 23.42,113.54 23.16,102.65 C23.11,100.56 23.09,98.60 23.12,96.74 C23.11,97.47 23.11,98.22 23.12,98.98 C23.18,105.32 23.52,111.82 23.87,113.44 C24.22,115.06 24.50,109.66 24.50,101.44 C24.51,89.04 24.81,85.95 26.28,83.25 C29.44,77.45 29.99,79.34 29.33,93.80 C28.65,108.80 29.40,114.02 33.69,124.36 C36.04,130.03 40.19,137.12 42.73,139.80 C43.40,140.51 44.31,141.64 44.75,142.30 C45.18,142.96 47.59,145.43 50.09,147.79 C54.68,152.10 58.00,152.70 58.00,149.20 C58.00,148.08 57.79,147.99 56.92,149.02 C56.47,148.21 53.75,145.09 50.49,141.66 C46.92,137.90 44.25,134.41 44.56,133.91 C44.86,133.41 44.61,133.00 44.00,133.00 C43.39,133.00 43.13,132.60 43.44,132.10 C43.74,131.61 43.29,130.94 42.43,130.61 C41.57,130.28 41.15,129.56 41.50,129.01 C41.84,128.45 41.72,128.00 41.24,128.00 C39.79,128.00 37.01,121.19 35.46,113.82 C34.15,107.58 33.77,101.19 34.28,94.92 C33.85,102.93 34.65,112.08 36.51,117.30 C38.77,123.63 39.22,122.92 37.35,116.00 C35.67,109.77 35.22,90.38 36.73,88.87 C38.43,87.17 39.82,92.92 40.33,103.73 C40.77,113.21 41.11,114.59 44.99,122.60 C48.35,129.55 50.78,132.84 57.35,139.37 C61.84,143.84 66.59,148.34 67.90,149.36 C70.96,151.75 77.99,154.95 80.25,154.98 C81.21,154.99 82.00,155.52 82.00,156.17 C82.00,156.81 82.30,157.04 82.66,156.68 C83.02,156.31 83.91,156.51 84.64,157.12 C85.37,157.72 89.80,158.46 94.48,158.75 C99.86,159.09 103.40,159.78 104.12,160.64 C104.74,161.39 105.98,161.97 106.87,161.93 C108.10,161.88 108.01,161.67 106.50,161.08 L 104.50 160.30 L 106.50 159.70 C107.60,159.38 110.53,158.83 113.00,158.49 C115.47,158.15 118.18,157.76 119.00,157.63 C122.64,157.03 136.48,149.75 141.90,145.58 C150.05,139.31 154.45,133.90 159.06,124.50 C164.34,113.74 165.50,105.65 163.59,93.11 C162.65,86.92 161.45,82.75 160.08,80.90 C158.94,79.35 158.00,77.16 158.00,76.04 C158.00,74.92 157.58,74.00 157.06,74.00 C156.04,74.00 156.20,75.33 158.27,81.05 C158.11,80.70 157.94,80.35 157.77,80.00 C147.31,58.50 123.39,44.80 99.00,46.34 C71.30,48.08 49.26,66.07 43.56,90.55 C43.96,88.37 44.34,85.88 44.51,84.20 C45.26,76.85 48.43,71.49 57.18,62.72 C66.75,53.14 73.43,49.45 87.44,45.99 C94.79,44.17 97.98,43.89 105.44,44.40 C122.39,45.56 126.39,46.01 126.94,46.79 C128.43,48.88 133.51,52.00 135.41,52.00 C136.59,52.00 138.22,52.95 139.03,54.10 C139.84,55.26 142.87,57.30 145.76,58.64 C149.30,60.27 151.87,62.35 153.63,65.02 C155.07,67.19 156.55,68.78 156.92,68.55 C158.95,67.29 162.99,73.94 166.42,84.18 C168.52,90.41 169.01,93.79 169.03,102.18 C169.05,110.21 169.31,112.08 170.17,110.60 C170.19,110.55 170.22,110.50 170.25,110.44 C169.97,114.95 169.30,117.27 167.64,121.49 C163.78,131.38 160.50,136.61 153.82,143.58 C150.62,146.93 148.00,149.97 148.00,150.33 C148.00,151.84 149.98,150.77 154.41,146.87 C154.93,146.41 155.44,145.94 155.94,145.45 C155.82,145.58 155.69,145.71 155.57,145.84 C151.68,149.95 149.40,152.82 150.50,152.23 C155.75,149.40 165.12,137.56 169.29,128.50 C175.41,115.19 176.90,95.87 172.79,83.27 C170.66,76.74 163.81,63.62 161.92,62.45 C161.41,62.14 161.00,61.43 161.00,60.88 C161.00,60.33 161.52,60.20 162.15,60.60 C162.88,61.04 163.04,60.87 162.59,60.14 C162.19,59.49 161.49,59.19 161.04,59.47 C160.59,59.75 159.67,59.31 158.99,58.49 C158.31,57.67 157.35,57.00 156.85,57.00 C156.36,57.00 157.83,59.36 160.13,62.25 C163.61,66.62 166.53,71.89 168.92,78.12 C168.61,77.39 168.30,76.73 167.99,76.15 C166.94,74.14 165.18,70.70 164.10,68.50 C161.57,63.37 155.27,56.00 153.41,56.00 C152.54,56.00 153.74,58.17 156.50,61.55 C151.51,55.43 151.32,55.00 153.56,55.00 C154.42,55.00 154.88,54.62 154.60,54.16 C154.31,53.70 155.98,53.35 158.29,53.38 C161.90,53.43 162.89,53.94 165.22,56.97 C166.72,58.91 167.96,61.01 167.97,61.63 C167.99,62.25 168.74,63.37 169.64,64.11 C171.19,65.40 172.89,68.78 177.13,79.00 L 179.00 83.50 L 178.37 79.50 C177.59,74.60 173.98,66.47 169.69,59.70 C172.54,64.10 174.94,68.83 176.88,73.86 C180.67,83.70 182.00,91.19 181.99,102.43 C181.95,122.91 174.55,138.88 157.95,154.30 C139.64,171.31 113.96,179.01 89.26,174.89 ZM 115.00 177.64 C115.00,177.17 116.12,177.07 117.50,177.41 C119.07,177.80 120.00,177.61 120.00,176.90 C120.00,176.26 120.87,175.99 122.00,176.29 C123.10,176.58 124.00,176.45 124.00,176.02 C124.00,175.58 125.60,174.92 127.56,174.55 C132.72,173.59 149.55,164.75 156.22,159.51 C166.83,151.18 177.97,135.40 181.56,123.62 C184.28,114.70 184.98,102.30 183.44,89.90 C182.37,81.20 181.80,78.54 178.49,71.56 C180.55,75.85 182.00,79.13 182.01,79.53 C182.02,82.23 184.23,87.98 185.06,87.47 C188.15,85.56 189.05,105.23 186.50,118.71 C182.34,140.61 165.02,162.10 142.43,173.37 C133.82,177.67 128.63,179.47 119.14,181.47 C112.52,182.86 98.24,183.32 92.00,182.33 C70.04,178.88 50.46,167.96 37.44,151.92 C34.72,148.57 32.05,145.28 31.50,144.62 C29.57,142.30 27.92,139.44 24.37,132.27 L 20.80 125.04 L 20.69 110.98 C20.75,111.42 20.81,111.85 20.88,112.26 C24.87,135.14 42.70,157.76 66.00,169.49 C69.03,171.02 71.77,172.68 72.09,173.18 C72.42,173.69 73.09,174.01 73.59,173.88 C75.40,173.44 82.00,175.25 82.00,176.18 C82.00,176.70 82.90,176.85 84.00,176.50 C85.23,176.11 86.00,176.32 86.00,177.04 C86.00,177.80 86.90,177.99 88.50,177.59 C89.88,177.24 91.00,177.31 91.00,177.73 C91.00,178.15 96.40,178.50 103.00,178.50 C109.60,178.50 115.00,178.11 115.00,177.64 ZM 118.82 137.61 C118.97,136.20 119.01,131.08 118.91,125.03 C118.79,117.90 118.35,112.28 117.93,112.54 C117.51,112.80 117.02,112.58 116.84,112.06 C116.65,111.53 114.44,110.97 111.92,110.80 C109.20,110.62 107.33,110.01 107.33,109.31 C107.33,107.92 109.16,108.04 110.23,109.50 C110.68,110.10 110.98,109.95 110.98,109.13 C111.00,108.09 111.33,108.03 112.35,108.88 C113.10,109.50 114.79,110.02 116.10,110.05 C127.25,110.25 130.49,110.04 130.80,109.09 C131.00,108.49 131.83,108.00 132.64,108.00 C133.53,108.00 133.84,107.50 133.41,106.75 C132.93,105.89 133.04,105.81 133.80,106.50 C134.40,107.05 135.05,109.97 135.26,113.00 C135.63,118.44 135.63,118.43 135.82,111.74 C135.95,106.64 135.87,105.24 134.24,103.14 L 137.00 106.26 L 137.00 138.00 L 127.67 138.00 C123.93,138.00 120.53,137.84 118.82,137.61 ZM 66.00 135.73 C66.00,134.21 68.73,130.75 74.25,125.29 C80.99,118.61 83.36,116.90 87.19,115.95 C87.56,115.86 87.94,115.78 88.31,115.70 C88.07,115.75 87.83,115.81 87.57,115.88 C84.24,116.72 81.44,118.77 75.13,124.99 C69.41,130.63 67.04,133.68 67.14,135.26 L 67.27 137.50 L 67.70 135.28 C68.17,132.86 83.67,118.00 85.73,118.00 C87.88,118.00 88.51,118.44 88.35,119.85 C88.26,120.59 89.52,119.92 91.14,118.36 C91.58,117.94 91.95,117.56 92.24,117.23 C90.94,118.99 88.47,121.80 85.22,125.17 C80.15,130.41 76.00,135.44 76.00,136.35 C76.00,137.66 74.98,138.00 71.00,138.00 C66.47,138.00 66.00,137.79 66.00,135.73 ZM 102.68 169.64 L 104.46 167.29 L 105.50 169.39 C106.63,171.66 110.11,172.62 112.82,171.41 C114.08,170.85 113.62,170.51 111.00,170.08 C108.09,169.60 107.50,169.08 107.50,167.00 C107.50,165.02 108.07,164.43 110.25,164.18 C113.93,163.76 113.78,162.00 110.06,162.00 C108.20,162.00 106.57,162.78 105.64,164.10 L 104.17 166.20 L 103.05 164.10 C101.30,160.82 100.00,161.62 100.00,166.00 C100.00,169.33 99.67,170.00 98.00,170.00 C96.33,170.00 96.00,169.33 96.00,166.00 C96.00,163.80 95.60,162.00 95.11,162.00 C93.81,162.00 93.09,168.21 94.15,170.25 C95.52,172.86 100.52,172.51 102.68,169.64 ZM 80.00 136.00 C80.00,134.90 81.85,132.31 84.12,130.25 C90.95,124.04 91.00,124.05 91.00,131.45 L 91.00 138.00 L 85.50 138.00 C80.66,138.00 80.00,137.76 80.00,136.00 ZM 70.00 95.08 C70.00,94.98 70.00,94.87 70.00,94.76 C70.00,111.31 70.39,124.00 70.89,124.00 C71.39,124.00 71.77,122.99 71.75,121.75 C71.66,117.01 72.43,112.15 73.20,112.62 C73.64,112.90 74.00,112.64 74.00,112.06 C74.00,110.59 78.74,110.72 79.23,112.20 C79.81,113.93 84.05,110.61 93.48,101.07 L 100.97 93.49 L 101.12 93.50 L 86.58 108.99 C78.58,117.52 71.58,124.64 71.02,124.83 C70.34,125.05 70.00,115.06 70.00,95.08 ZM 124.43 169.08 C126.77,166.49 126.07,162.89 122.87,161.09 C120.50,159.77 119.96,159.80 117.62,161.33 C115.99,162.39 115.00,163.96 115.00,165.45 C115.00,170.52 121.03,172.84 124.43,169.08 ZM 91.00 166.50 C91.00,162.31 89.72,160.61 88.98,163.24 C88.97,161.11 88.75,160.83 88.00,162.00 C87.20,163.24 87.03,163.25 87.02,162.08 C87.01,161.30 86.74,160.93 86.42,161.25 C86.10,161.57 86.34,162.77 86.95,163.91 C87.39,164.73 87.75,165.29 88.03,165.60 C87.72,165.34 87.24,164.58 86.45,163.26 C84.30,159.67 82.00,158.96 82.00,161.88 C82.00,162.91 81.72,165.16 81.38,166.88 C80.59,170.79 82.47,171.09 83.76,167.25 L 84.68 164.50 L 86.36 167.75 C88.87,172.59 91.00,172.01 91.00,166.50 ZM 136.09 163.17 C134.38,159.97 134.73,159.82 138.95,161.97 C143.84,164.47 144.72,163.34 142.02,158.03 C139.72,153.52 137.42,152.54 138.41,156.50 C139.13,159.36 139.01,159.42 135.52,157.83 C131.40,155.95 130.42,157.95 133.00,163.00 C134.46,165.86 135.49,166.91 136.17,166.23 C136.86,165.54 136.83,164.55 136.09,163.17 ZM 69.49 163.16 C69.27,162.93 69.71,161.23 70.49,159.37 C71.67,156.54 71.68,156.00 70.53,156.00 C69.78,156.00 68.99,156.53 68.77,157.18 C68.55,157.86 67.64,158.07 66.62,157.68 C65.40,157.22 65.06,156.39 65.50,155.00 C66.62,151.47 63.49,152.74 61.67,156.57 C59.82,160.46 60.45,163.47 62.53,160.63 C64.51,157.92 67.03,159.62 66.31,163.19 C65.74,166.04 65.82,166.13 67.81,164.89 C68.96,164.17 69.72,163.39 69.49,163.16 ZM 78.99 165.75 C78.97,161.08 77.97,158.00 76.47,158.00 C74.47,158.00 68.72,165.71 70.09,166.55 C70.71,166.94 71.57,166.70 71.98,166.02 C72.57,165.09 73.25,165.06 74.87,165.93 C76.04,166.56 77.00,167.50 77.00,168.04 C77.00,168.57 77.45,169.00 78.00,169.00 C78.55,169.00 78.99,167.54 78.99,165.75 ZM 118.20 167.31 C116.85,164.68 117.81,163.00 120.65,163.00 C122.77,163.00 123.09,163.40 122.82,165.74 C122.44,168.98 119.57,169.96 118.20,167.31 ZM 131.50 166.25 C131.11,165.29 130.35,163.26 129.80,161.75 C128.76,158.89 127.00,158.01 127.00,160.35 C127.00,163.29 129.28,168.00 130.70,168.00 C131.75,168.00 131.99,167.46 131.50,166.25 ZM 55.98 150.18 C54.91,151.31 54.19,150.65 50.10,146.30 C41.41,137.04 35.91,127.68 33.33,117.75 C33.29,117.58 33.24,117.42 33.20,117.25 C34.34,120.83 36.32,125.66 38.13,129.13 C42.86,138.23 52.78,149.47 55.98,150.18 ZM 173.23 110.30 C171.81,121.82 168.03,130.81 160.66,140.02 C166.84,131.80 171.49,120.83 173.23,110.30 ZM 79.00 162.44 C79.00,163.30 79.45,164.00 80.00,164.00 C80.55,164.00 81.00,163.58 81.00,163.06 C81.00,162.54 80.55,161.84 80.00,161.50 C79.45,161.16 79.00,161.58 79.00,162.44 ZM 139.78 144.48 C151.85,135.52 159.86,122.56 162.05,108.71 C159.99,122.54 152.11,135.50 139.78,144.48 ZM 50.19 127.33 C55.67,135.96 63.70,143.51 73.40,148.62 C63.44,143.43 55.62,136.24 50.19,127.33 ZM 37.14 80.28 C39.22,73.69 42.33,67.51 46.41,62.07 C43.05,66.55 39.45,73.73 37.14,80.28 ZM 96.19 156.38 C101.57,157.08 106.93,156.86 112.89,155.82 C109.20,156.57 105.69,156.99 102.79,156.98 C100.77,156.97 98.55,156.77 96.19,156.38 ZM 170.32 94.04 C169.84,89.68 169.10,85.50 168.21,82.98 C167.60,81.25 166.96,79.59 166.28,77.99 C167.13,79.94 167.91,81.95 168.61,84.00 C169.60,86.88 170.11,89.61 170.32,94.04 ZM 131.79 100.38 C129.26,97.71 128.55,97.69 122.17,97.90 L 129.38 97.67 ZM 20.77 91.09 C21.02,86.41 21.60,83.99 22.84,80.04 C23.34,78.47 23.87,76.92 24.43,75.40 C23.94,76.75 23.47,78.11 23.04,79.50 C22.03,82.71 21.26,86.78 20.77,91.09 ZM 171.43 85.69 C171.66,86.50 171.89,87.33 172.10,88.16 C173.30,92.77 173.82,95.73 173.88,99.43 C173.59,95.39 172.66,90.30 171.43,85.69 ZM 23.25 92.41 C23.79,81.84 25.92,74.67 30.64,66.07 C32.53,62.62 34.51,59.44 36.61,56.48 C40.00,51.74 43.72,47.59 47.94,43.88 C43.72,47.59 40.00,51.74 36.61,56.48 C34.51,59.44 32.53,62.62 30.64,66.07 C26.03,74.49 23.80,82.27 23.25,92.41 ZM 31.16 103.78 C30.75,97.17 31.19,90.67 32.50,85.46 C31.32,90.17 30.87,97.18 31.16,103.78 ZM 42.93 93.71 C42.69,95.10 42.50,96.51 42.37,97.94 C42.10,100.78 42.16,103.66 42.51,106.53 C41.85,102.19 42.00,98.22 42.93,93.71 ZM 36.41 53.62 C43.88,44.00 53.56,36.32 65.50,30.53 C53.61,36.30 43.88,44.03 36.41,53.62 ZM 92.37 115.14 C92.72,115.14 92.99,115.16 93.16,115.22 C93.33,115.28 93.29,115.53 93.07,115.96 C93.21,115.49 92.98,115.22 92.37,115.14 ZM 92.84 93.00 L 91.27 93.00 L 91.26 92.90 Z" fill="rgb(207,155,25)"/>
<path d="M 0.00 0.00 L 205.00 0.00 L 205.00 205.00 L 0.00 205.00 ZM 19.26 121.50 L 20.48 125.49 L 20.79 123.78 L 20.80 125.04 L 24.37 132.27 C27.92,139.44 29.57,142.30 31.50,144.62 C32.05,145.28 34.72,148.57 37.44,151.92 C50.46,167.96 70.04,178.88 92.00,182.33 C98.24,183.32 112.52,182.86 119.14,181.47 C128.63,179.47 133.82,177.67 142.43,173.37 C165.02,162.10 182.34,140.61 186.50,118.71 C189.05,105.23 188.15,85.56 185.06,87.47 C184.97,87.52 184.87,87.50 184.76,87.44 C184.92,87.41 185.09,87.31 185.27,87.13 C187.85,84.55 181.20,67.29 173.35,56.15 C160.86,38.45 143.78,26.80 122.50,21.47 C112.38,18.94 110.46,18.77 98.50,19.31 C91.35,19.63 83.93,20.42 82.00,21.07 C60.20,28.37 51.77,33.22 39.60,45.49 C31.53,53.62 24.18,65.24 20.61,75.50 C15.66,89.76 15.13,108.00 19.26,121.50 ZM 101.47 50.95 C100.52,49.41 101.82,48.42 103.10,49.70 C103.82,50.42 103.84,50.98 103.16,51.40 C102.60,51.75 101.84,51.55 101.47,50.95 ZM 20.77 91.09 C19.99,97.95 19.91,105.41 20.69,110.98 L 20.70 112.60 C20.69,112.57 20.69,112.53 20.69,112.50 C19.75,104.96 19.82,97.59 20.80,90.52 C20.79,90.70 20.78,90.90 20.77,91.09 ZM 183.03 84.17 C182.46,82.57 182.01,80.74 182.01,79.53 C182.01,80.05 182.47,82.11 183.03,84.17 ZM 25.76 71.99 C27.61,67.45 29.88,63.11 32.56,59.02 C29.94,63.06 27.68,67.38 25.76,71.99 Z" fill="rgb(239,236,241)"/>
<path d="M 86.95 163.91 C86.34,162.77 86.10,161.57 86.42,161.25 C86.74,160.93 87.01,161.30 87.02,162.08 C87.03,163.25 87.20,163.24 88.00,162.00 C88.76,160.83 88.97,161.11 88.98,163.25 C89.00,166.54 88.46,166.72 86.95,163.91 ZM 79.00 162.44 C79.00,161.58 79.45,161.16 80.00,161.50 C80.55,161.84 81.00,162.54 81.00,163.06 C81.00,163.58 80.55,164.00 80.00,164.00 C79.45,164.00 79.00,163.30 79.00,162.44 ZM 104.12 160.64 C103.40,159.78 99.86,159.09 94.48,158.75 C89.80,158.46 85.37,157.72 84.64,157.12 C83.91,156.51 83.02,156.31 82.66,156.68 C82.30,157.04 82.00,156.81 82.00,156.17 C82.00,155.52 81.21,154.99 80.25,154.98 C77.99,154.95 70.96,151.75 67.90,149.36 C66.59,148.34 61.84,143.84 57.35,139.37 C50.78,132.84 48.35,129.55 44.99,122.60 C41.11,114.59 40.77,113.21 40.33,103.73 C39.82,92.92 38.43,87.17 36.73,88.87 C35.22,90.38 35.67,109.77 37.35,116.00 C39.22,122.92 38.77,123.63 36.51,117.30 C33.87,109.87 33.37,94.50 35.49,85.74 C37.33,78.14 42.07,67.86 46.41,62.07 C49.67,57.72 48.88,56.78 45.05,60.45 C41.32,64.02 34.46,77.71 32.50,85.46 C30.25,94.40 30.57,107.14 33.33,117.75 C35.91,127.68 41.41,137.04 50.10,146.30 C54.80,151.30 55.05,151.43 56.49,149.56 C57.72,147.98 58.00,147.91 58.00,149.20 C58.00,152.70 54.68,152.10 50.09,147.79 C47.59,145.43 45.18,142.96 44.75,142.30 C44.31,141.64 43.40,140.51 42.73,139.80 C40.19,137.12 36.04,130.03 33.69,124.36 C29.40,114.02 28.65,108.80 29.33,93.80 C29.99,79.34 29.44,77.45 26.28,83.25 C24.81,85.95 24.51,89.04 24.50,101.44 C24.50,109.66 24.22,115.06 23.87,113.44 C23.52,111.82 23.18,105.32 23.12,98.98 C22.98,85.44 25.09,76.22 30.64,66.07 C40.63,47.82 53.14,36.97 74.15,28.34 L 83.50 24.50 L 100.50 24.50 C115.54,24.50 118.36,24.77 124.96,26.84 C143.05,32.52 157.74,42.78 167.64,56.65 C172.79,63.85 177.47,73.83 178.37,79.50 L 179.00 83.50 L 177.13 79.00 C172.89,68.78 171.19,65.40 169.64,64.11 C168.74,63.37 167.99,62.25 167.97,61.63 C167.96,61.01 166.72,58.91 165.22,56.97 C162.89,53.94 161.90,53.43 158.29,53.38 C155.98,53.35 154.31,53.70 154.60,54.16 C154.88,54.62 154.42,55.00 153.56,55.00 C151.32,55.00 151.51,55.43 156.51,61.56 C161.48,67.66 165.24,74.55 168.21,82.98 C170.56,89.63 171.84,107.72 170.17,110.60 C169.31,112.08 169.05,110.21 169.03,102.18 C169.01,93.79 168.52,90.41 166.42,84.18 C162.99,73.94 158.95,67.29 156.92,68.55 C156.55,68.78 155.07,67.19 153.63,65.02 C151.87,62.35 149.30,60.27 145.76,58.64 C142.87,57.30 139.84,55.26 139.03,54.10 C138.22,52.95 136.59,52.00 135.41,52.00 C133.51,52.00 128.43,48.88 126.94,46.79 C126.39,46.01 122.39,45.56 105.44,44.40 C97.98,43.89 94.79,44.17 87.44,45.99 C73.43,49.45 66.75,53.14 57.18,62.72 C48.43,71.49 45.26,76.85 44.51,84.20 C44.27,86.56 43.62,90.53 43.08,93.00 C41.65,99.47 41.78,104.75 43.53,111.47 C47.98,128.56 58.91,141.67 75.30,149.57 C84.74,154.13 95.21,156.95 102.79,156.98 C110.41,157.01 122.30,154.04 130.50,150.04 C156.46,137.41 168.83,109.38 159.48,84.36 C156.29,75.81 155.87,74.00 157.06,74.00 C157.58,74.00 158.00,74.92 158.00,76.04 C158.00,77.16 158.94,79.35 160.08,80.90 C161.45,82.75 162.65,86.92 163.59,93.11 C165.50,105.65 164.34,113.74 159.06,124.50 C154.45,133.90 150.05,139.31 141.90,145.58 C136.48,149.75 122.64,157.03 119.00,157.63 C118.18,157.76 115.47,158.15 113.00,158.49 C110.53,158.83 107.60,159.38 106.50,159.70 L 104.50 160.30 L 106.50 161.08 C108.01,161.67 108.10,161.88 106.87,161.93 C105.98,161.97 104.74,161.39 104.12,160.64 ZM 55.30 57.37 C55.65,57.02 55.45,55.84 54.87,54.75 C54.05,53.23 54.17,52.40 55.37,51.20 C56.79,49.78 57.11,49.79 58.80,51.32 C60.61,52.96 63.00,53.58 63.00,52.41 C63.00,51.36 56.68,43.00 55.89,43.00 C54.44,43.00 53.77,45.17 54.87,46.27 C55.67,47.07 55.52,47.87 54.32,49.19 C52.78,50.91 52.56,50.91 50.81,49.33 C47.30,46.15 46.93,49.29 50.30,53.72 C53.57,58.02 54.19,58.47 55.30,57.37 ZM 149.32 50.86 C151.03,48.38 151.88,46.14 151.49,45.14 C150.95,43.76 150.47,43.96 148.53,46.38 C146.01,49.51 146.10,49.59 144.57,42.75 C144.24,41.24 143.34,40.00 142.58,40.00 C140.74,40.00 135.89,48.23 137.03,49.41 C138.13,50.54 141.00,48.31 141.00,46.32 C141.00,45.53 141.45,45.16 142.00,45.50 C142.55,45.84 143.00,47.58 143.00,49.36 C143.00,52.26 144.48,55.06 145.95,54.96 C146.25,54.94 147.77,53.09 149.32,50.86 ZM 67.00 48.54 C67.00,46.47 70.79,44.58 72.35,45.87 C73.02,46.43 74.12,46.55 74.79,46.13 C75.98,45.39 74.82,44.05 68.22,38.54 C66.24,36.89 65.75,36.83 64.56,38.07 C62.73,39.98 63.62,50.00 65.63,50.00 C66.38,50.00 67.00,49.34 67.00,48.54 ZM 134.00 46.54 C134.00,46.28 134.89,43.81 135.99,41.04 C137.64,36.85 137.72,36.00 136.51,36.00 C134.97,36.00 131.00,42.82 131.00,45.46 C131.00,46.31 131.68,47.00 132.50,47.00 C133.32,47.00 134.00,46.79 134.00,46.54 ZM 79.06 40.66 C77.82,37.38 79.33,37.13 83.00,40.00 C87.85,43.79 89.04,42.20 86.84,34.87 C85.40,30.04 82.49,29.41 83.53,34.15 L 84.23 37.30 L 80.59 35.05 C76.26,32.38 73.53,32.92 74.55,36.25 C76.39,42.28 78.08,45.32 79.06,44.34 C79.75,43.65 79.75,42.46 79.06,40.66 ZM 127.78 42.44 C130.98,40.20 130.85,34.60 127.54,32.43 C124.27,30.29 119.24,31.37 117.81,34.52 C114.93,40.85 122.01,46.48 127.78,42.44 ZM 100.10 39.90 C101.69,38.31 102.06,37.05 101.60,34.77 C101.27,33.11 101.00,31.13 101.00,30.38 C101.00,29.62 100.32,29.00 99.50,29.00 C98.37,29.00 98.00,30.22 98.00,34.00 C98.00,37.72 97.63,39.00 96.54,39.00 C94.69,39.00 93.00,35.92 93.00,32.57 C93.00,30.95 92.44,30.00 91.50,30.00 C88.60,30.00 90.19,39.30 93.35,40.83 C96.56,42.38 97.79,42.21 100.10,39.90 ZM 113.41 41.40 C115.62,40.55 114.37,39.00 111.48,39.00 C110.07,39.00 108.61,38.14 107.97,36.94 C106.41,34.03 108.51,31.70 112.19,32.24 C115.43,32.72 116.15,30.50 113.09,29.53 C105.92,27.25 100.87,35.40 106.63,39.93 C109.39,42.10 110.79,42.40 113.41,41.40 ZM 100.54 152.07 C99.80,150.87 101.68,149.69 103.02,150.51 C104.13,151.20 103.40,153.00 102.00,153.00 C101.51,153.00 100.86,152.58 100.54,152.07 ZM 155.57 145.84 C167.55,133.18 172.60,121.95 173.67,105.50 C174.16,98.16 173.87,94.97 172.10,88.16 C169.31,77.37 165.34,68.80 160.13,62.25 C157.83,59.36 156.36,57.00 156.85,57.00 C157.35,57.00 158.31,57.67 158.99,58.49 C159.67,59.31 160.59,59.75 161.04,59.47 C161.49,59.19 162.19,59.49 162.59,60.14 C163.04,60.87 162.88,61.04 162.15,60.60 C161.52,60.20 161.00,60.33 161.00,60.88 C161.00,61.43 161.41,62.14 161.92,62.45 C163.81,63.62 170.66,76.74 172.79,83.27 C176.90,95.87 175.41,115.19 169.29,128.50 C165.12,137.56 155.75,149.40 150.50,152.23 C149.40,152.82 151.68,149.95 155.57,145.84 ZM 117.67 137.33 C117.30,136.97 117.00,131.62 117.00,125.46 C117.00,111.93 116.69,111.48 107.93,112.27 C104.61,112.57 102.03,112.45 102.20,111.99 C102.36,111.53 105.32,108.23 108.77,104.65 L 115.04 98.13 L 122.17 97.90 C129.22,97.67 129.35,97.71 132.65,101.32 C135.82,104.77 135.99,105.34 135.82,111.74 C135.63,118.43 135.63,118.44 135.26,113.00 C135.05,109.97 134.40,107.05 133.80,106.50 C133.04,105.81 132.93,105.89 133.41,106.75 C133.84,107.50 133.53,108.00 132.64,108.00 C131.83,108.00 131.00,108.49 130.80,109.09 C130.49,110.04 127.25,110.25 116.10,110.05 C114.79,110.02 113.10,109.50 112.35,108.88 C111.33,108.03 111.00,108.09 110.98,109.13 C110.98,109.95 110.68,110.10 110.23,109.50 C109.16,108.04 107.33,107.92 107.33,109.31 C107.33,110.01 109.20,110.62 111.92,110.80 C114.44,110.97 116.65,111.53 116.84,112.06 C117.02,112.58 117.51,112.80 117.93,112.54 C118.35,112.28 118.79,117.90 118.91,125.03 C119.03,132.17 118.95,138.00 118.73,138.00 C118.51,138.00 118.03,137.70 117.67,137.33 ZM 67.14 135.26 C67.04,133.68 69.41,130.63 75.13,124.99 C81.44,118.77 84.24,116.72 87.57,115.88 C93.58,114.37 94.58,115.07 91.14,118.36 C89.52,119.92 88.26,120.59 88.35,119.85 C88.51,118.44 87.88,118.00 85.73,118.00 C83.67,118.00 68.17,132.86 67.70,135.28 L 67.27 137.50 L 67.14 135.26 ZM 19.26 121.50 C15.13,108.00 15.66,89.76 20.61,75.50 C24.18,65.24 31.53,53.62 39.60,45.49 C51.77,33.22 60.20,28.37 82.00,21.07 C83.93,20.42 91.35,19.63 98.50,19.31 C110.46,18.77 112.38,18.94 122.50,21.47 C143.78,26.80 160.86,38.45 173.35,56.15 C181.20,67.29 187.85,84.55 185.27,87.13 C184.46,87.94 183.87,87.21 183.09,84.37 C182.49,82.24 182.01,80.06 182.01,79.53 C182.00,78.99 179.43,73.37 176.28,67.03 C171.28,56.95 169.50,54.43 162.03,47.00 C144.64,29.68 125.86,22.00 100.87,22.00 C86.85,22.00 79.38,23.80 65.50,30.53 C33.51,46.05 16.35,77.42 20.69,112.50 C21.16,116.35 21.31,120.85 21.02,122.50 L 20.48 125.49 L 19.26 121.50 ZM 70.00 94.50 C70.00,78.28 70.26,65.00 70.58,65.00 C70.89,65.00 75.39,67.53 80.58,70.62 C89.79,76.12 90.00,76.33 90.00,79.98 C90.00,82.04 90.29,85.81 90.64,88.36 L 91.27 93.00 L 96.36 93.00 L 101.45 93.00 L 93.48 101.07 C84.05,110.61 79.81,113.93 79.23,112.20 C78.74,110.72 74.00,110.59 74.00,112.06 C74.00,112.64 73.64,112.90 73.20,112.62 C72.43,112.15 71.66,117.01 71.75,121.75 C71.77,122.99 71.39,124.00 70.89,124.00 C70.39,124.00 70.00,111.17 70.00,94.50 ZM 86.00 113.83 C86.00,113.63 90.70,108.52 96.44,102.48 L 106.88 91.50 L 109.67 94.25 L 112.45 97.00 L 105.09 104.41 C98.73,110.81 97.13,111.90 93.24,112.49 C90.77,112.86 88.13,113.40 87.37,113.69 C86.62,113.98 86.00,114.04 86.00,113.83 ZM 155.46 101.93 C154.54,100.45 155.40,99.83 157.35,100.58 C158.25,100.93 158.74,101.61 158.44,102.10 C157.69,103.32 156.26,103.23 155.46,101.93 ZM 119.61 95.18 C118.80,93.87 119.58,93.43 124.16,92.60 C128.71,91.78 133.76,86.82 134.60,82.32 C134.98,80.29 135.81,79.00 136.74,79.00 C137.94,79.00 138.13,79.79 137.66,82.73 C136.57,89.41 131.04,94.78 124.29,95.69 C121.97,96.00 119.99,95.79 119.61,95.18 ZM 112.31 93.05 C109.52,91.35 107.00,88.27 107.00,86.57 C107.00,85.14 109.39,86.23 111.13,88.44 C112.19,89.78 113.94,91.16 115.03,91.51 C116.11,91.85 117.00,92.78 117.00,93.57 C117.00,95.47 116.12,95.37 112.31,93.05 ZM 117.14 89.93 C113.22,88.36 116.09,86.50 122.41,86.51 C128.41,86.52 129.73,87.75 125.89,89.74 C123.09,91.18 120.42,91.24 117.14,89.93 ZM 112.10 85.62 C110.36,83.52 111.07,75.50 113.00,75.50 C115.02,75.50 116.29,83.96 114.55,85.80 C113.55,86.86 113.11,86.83 112.10,85.62 ZM 119.22 83.44 C116.47,81.52 116.41,79.84 119.00,77.50 C123.07,73.81 128.68,79.92 124.80,83.80 C123.20,85.40 121.89,85.31 119.22,83.44 ZM 128.89 84.33 C128.83,83.88 128.86,82.51 128.95,81.30 C129.05,80.10 128.61,78.14 127.97,76.95 C126.18,73.60 128.40,72.16 130.48,75.32 C132.34,78.16 132.19,84.12 130.25,84.76 C129.56,84.98 128.95,84.79 128.89,84.33 ZM 105.40 82.60 C104.45,80.13 107.06,72.85 109.82,70.26 C112.89,67.37 117.95,65.00 121.05,65.00 C124.35,65.00 122.85,67.07 118.46,68.56 C113.29,70.33 109.19,74.98 108.38,80.00 C107.74,84.02 106.40,85.20 105.40,82.60 ZM 133.06 74.56 C131.57,72.98 130.93,71.36 131.28,70.05 C131.67,68.54 131.33,68.00 129.99,68.00 C127.10,68.00 125.00,66.90 125.00,65.39 C125.00,64.35 126.61,64.00 131.50,64.00 L 138.00 64.00 L 138.00 67.00 C138.00,69.00 137.50,70.00 136.50,70.00 C134.71,70.00 134.65,70.48 136.09,73.17 C137.83,76.41 135.71,77.38 133.06,74.56 ZM 115.15 74.14 C112.74,72.56 117.88,70.00 123.44,70.00 C128.38,70.00 128.42,70.02 126.47,71.90 C124.23,74.07 117.18,75.46 115.15,74.14 ZM 66.00 42.44 C66.00,41.58 66.45,41.16 67.00,41.50 C67.55,41.84 68.00,42.54 68.00,43.06 C68.00,43.58 67.55,44.00 67.00,44.00 C66.45,44.00 66.00,43.30 66.00,42.44 ZM 122.25 40.72 C118.37,38.95 119.90,33.57 124.11,34.16 C125.82,34.40 126.59,35.23 126.80,37.09 C127.20,40.50 125.21,42.08 122.25,40.72 Z" fill="rgb(236,198,57)"/>
</g>
</svg>